<svg xmlns="http://www.w3.org/2000/svg" version="1.1" xmlns:xlink="http://www.w3.org/1999/xlink" xmlns:svgjs="http://svgjs.dev/svgjs" width="308.7612359841165" height="304.915625" viewBox="0 0 1000 1000"><rect width="1000" height="1000" fill="#090202"></rect><g transform="matrix(0.7,0,0,0.7,150.61875409836057,146.08680161943317)"><svg viewBox="0 0 244 247" data-background-color="#090202" preserveAspectRatio="xMidYMid meet" height="1012" width="1000" xmlns="http://www.w3.org/2000/svg" xmlns:xlink="http://www.w3.org/1999/xlink"><g id="tight-bounds" transform="matrix(1,0,0,1,-0.21567999999996346,-0.09999999999999432)"><svg viewBox="0 0 244.43135999999996 247.2" height="247.2" width="244.43135999999996"><g><svg></svg></g><g><svg viewBox="0 0 244.43135999999996 247.2" height="247.2" width="244.43135999999996"><g transform="matrix(1,0,0,1,0,75.14807294117647)"><svg viewBox="0 0 244.43135999999996 96.90385411764706" height="96.90385411764706" width="244.43135999999996"><g><svg viewBox="0 0 244.43135999999996 96.90385411764706" height="96.90385411764706" width="244.43135999999996"><g><svg viewBox="0 0 244.43135999999996 96.90385411764706" height="96.90385411764706" width="244.43135999999996"><g><svg viewBox="0 0 244.43135999999996 96.90385411764706" height="96.90385411764706" width="244.43135999999996"><g id="textblocktransform"><svg viewBox="0 0 244.43135999999996 96.90385411764706" height="96.90385411764706" width="244.43135999999996" id="textblock"><g><svg viewBox="0 0 244.43135999999996 96.90385411764706" height="96.90385411764706" width="244.43135999999996"><g transform="matrix(1,0,0,1,0,0)"><svg width="244.43135999999996" viewBox="2.9 -32.1 81.58999999999999 32.35" height="96.90385411764706" data-palette-color="#fbd904"><path d="M6.25-15.05Q5-15.05 3.95-16.03 2.9-17 2.9-18.4L2.9-18.4Q2.9-18.85 3.15-19.7L3.15-19.7Q3.45-20.65 4.15-21.13 4.85-21.6 5.65-21.6L5.65-21.6Q7-21.6 8.15-20.5 9.3-19.4 9.3-18L9.3-18Q9.3-17.2 8.9-16.55L8.9-16.55Q7.95-15.05 6.25-15.05L6.25-15.05ZM5.9-5.9Q7.65-5.9 8.47-5.23 9.3-4.55 9.3-3.35L9.3-3.35Q9.3-2.05 8.47-0.98 7.65 0.1 6.4 0.1L6.4 0.1Q4.65 0.1 3.83-0.8 3-1.7 3-3L3-3Q3-4.1 3.75-5 4.5-5.9 5.9-5.9L5.9-5.9ZM30.95-32.1Q31.75-32.1 32.25-31.68 32.75-31.25 32.75-30.65L32.75-30.65Q32.75-30.1 32.5-29.65L32.5-29.65Q30.85-27.05 29.65-24.8 28.45-22.55 26.65-18.95L26.65-18.95Q25.95-17.55 24.4-14.5L24.4-14.5Q23.65-13.05 22.25-9.75L22.25-9.75Q20.2-5.15 18.9-2.75L18.9-2.75Q17.35 0.25 15.35 0.25L15.35 0.25Q12.8 0.25 12.8-1.55L12.8-1.55Q12.8-2.25 13.25-2.85L13.25-2.85Q15.95-6.8 17.87-10.53 19.8-14.25 22.05-19.25L22.05-19.25Q24.6-24.95 26.35-28.15L26.35-28.15Q27.2-29.85 28.17-30.98 29.15-32.1 30.95-32.1L30.95-32.1ZM52-32.1Q52.8-32.1 53.3-31.68 53.8-31.25 53.8-30.65L53.8-30.65Q53.8-30.1 53.55-29.65L53.55-29.65Q51.9-27.05 50.7-24.8 49.5-22.55 47.7-18.95L47.7-18.95Q47-17.55 45.45-14.5L45.45-14.5Q44.7-13.05 43.3-9.75L43.3-9.75Q41.25-5.15 39.95-2.75L39.95-2.75Q38.4 0.25 36.4 0.25L36.4 0.25Q33.84 0.25 33.84-1.55L33.84-1.55Q33.84-2.25 34.3-2.85L34.3-2.85Q37-6.8 38.92-10.53 40.84-14.25 43.09-19.25L43.09-19.25Q45.65-24.95 47.4-28.15L47.4-28.15Q48.25-29.85 49.22-30.98 50.2-32.1 52-32.1L52-32.1ZM78.84-28.1Q78.84-29.55 79.52-30.63 80.19-31.7 81.54-31.7L81.54-31.7Q82.69-31.7 83.59-31.25 84.49-30.8 84.49-29.75L84.49-29.75Q84.49-27.7 84.29-24L84.29-24Q84.09-20.4 84.09-18.65L84.09-18.65Q84.09-15.9 84.29-11.3L84.29-11.3Q84.49-6.9 84.49-4.85L84.49-4.85Q84.49-3.2 84.44-2.4L84.44-2.4Q84.44-1.6 83.57-0.83 82.69-0.05 80.89-0.05L80.89-0.05Q79.94-0.05 79.27-0.38 78.59-0.7 78.34-1.1L78.34-1.1Q75.99-3.95 71.49-10.8L71.49-10.8Q66.44-18.45 63.24-22.5L63.24-22.5Q63.64-18.9 63.64-13.7L63.64-13.7Q63.64-11.4 63.57-7.73 63.49-4.05 63.34-2.9L63.34-2.9Q63.14-1.45 62.47-0.68 61.79 0.1 60.34 0.1L60.34 0.1Q59.24 0.1 58.72-0.53 58.19-1.15 58.09-2.7L58.09-2.7Q58.04-4.75 58.34-8.85L58.34-8.85Q58.39-9.5 58.49-11.1 58.59-12.7 58.59-13.95L58.59-13.95Q58.59-17.4 58.24-21.85L58.24-21.85Q57.94-26.75 57.94-29.1L57.94-29.1Q57.94-30.3 58.82-30.95 59.69-31.6 60.84-31.6L60.84-31.6Q61.84-31.6 62.94-31.1L62.94-31.1Q67.24-25.7 74.59-15L74.59-15 79.29-7.8Q79.34-8.6 79.34-10.05L79.34-10.05Q79.34-12.6 79.24-15.55 79.14-18.5 79.09-19.55L79.09-19.55Q78.84-24.4 78.84-28.1L78.84-28.1Z" opacity="1" transform="matrix(1,0,0,1,0,0)" fill="#fbd904" class="undefined-text-0" data-fill-palette-color="primary" id="text-0"></path></svg></g></svg></g></svg></g></svg></g><g></g></svg></g></svg></g></svg></g><path d="M0 69.148L0 1 244.431 1 244.431 69.148 235.692 69.148 235.692 9.739 8.739 9.739 8.739 69.148 0 69.148M0 178.052L0 246.2 244.431 246.2 244.431 178.052 235.692 178.052 235.692 237.461 8.739 237.461 8.739 178.052 0 178.052" fill="#fbd904" stroke="transparent" data-fill-palette-color="primary"></path></svg></g><defs></defs></svg><rect width="244.43135999999996" height="247.2" fill="none" stroke="none" visibility="hidden"></rect></g></svg></g></svg>